<?xml version="1.0" encoding="UTF-8"?>
<!--Generator: Apple Native CoreSVG 232.5-->
<!DOCTYPE svg
PUBLIC "-//W3C//DTD SVG 1.1//EN"
       "http://www.w3.org/Graphics/SVG/1.1/DTD/svg11.dtd">
<svg version="1.1" xmlns="http://www.w3.org/2000/svg" xmlns:xlink="http://www.w3.org/1999/xlink" width="3300" height="2200">
 <!--glyph: "", point size: 100.0, font version: "19.0d8e1", template writer version: "128"-->
 <style>.monochrome-0 {-sfsymbols-motion-group:1}
.monochrome-1 {opacity:0.0;-sfsymbols-clear-behind:true;-sfsymbols-motion-group:0}

.multicolor-0:systemYellowColor {-sfsymbols-motion-group:1}
.multicolor-1:black {opacity:0.75;-sfsymbols-motion-group:0}

.hierarchical-0:secondary {-sfsymbols-motion-group:1}
.hierarchical-1:primary {-sfsymbols-motion-group:0}

.SFSymbolsPreviewWireframe {fill:none;opacity:1.0;stroke:black;stroke-width:0.5}
</style>
 <g id="Notes">
  <rect height="2200" id="artboard" style="fill:white;opacity:1" width="3300" x="0" y="0"/>
  <line style="fill:none;stroke:black;opacity:1;stroke-width:0.5;" x1="263" x2="3036" y1="292" y2="292"/>
  <text style="stroke:none;fill:black;font-family:sans-serif;font-size:13;font-weight:bold;" transform="matrix(1 0 0 1 263 322)">Weight/Scale Variations</text>
  <text style="stroke:none;fill:black;font-family:sans-serif;font-size:13;text-anchor:middle;" transform="matrix(1 0 0 1 559.711 322)">Ultralight</text>
  <text style="stroke:none;fill:black;font-family:sans-serif;font-size:13;text-anchor:middle;" transform="matrix(1 0 0 1 856.422 322)">Thin</text>
  <text style="stroke:none;fill:black;font-family:sans-serif;font-size:13;text-anchor:middle;" transform="matrix(1 0 0 1 1153.13 322)">Light</text>
  <text style="stroke:none;fill:black;font-family:sans-serif;font-size:13;text-anchor:middle;" transform="matrix(1 0 0 1 1449.84 322)">Regular</text>
  <text style="stroke:none;fill:black;font-family:sans-serif;font-size:13;text-anchor:middle;" transform="matrix(1 0 0 1 1746.56 322)">Medium</text>
  <text style="stroke:none;fill:black;font-family:sans-serif;font-size:13;text-anchor:middle;" transform="matrix(1 0 0 1 2043.27 322)">Semibold</text>
  <text style="stroke:none;fill:black;font-family:sans-serif;font-size:13;text-anchor:middle;" transform="matrix(1 0 0 1 2339.98 322)">Bold</text>
  <text style="stroke:none;fill:black;font-family:sans-serif;font-size:13;text-anchor:middle;" transform="matrix(1 0 0 1 2636.69 322)">Heavy</text>
  <text style="stroke:none;fill:black;font-family:sans-serif;font-size:13;text-anchor:middle;" transform="matrix(1 0 0 1 2933.4 322)">Black</text>
  <line style="fill:none;stroke:black;opacity:1;stroke-width:0.5;" x1="263" x2="3036" y1="1903" y2="1903"/>
  <g transform="matrix(0.2 0 0 0.2 263 1933)">
   <path d="m46.2402 4.15039c21.5332 0 39.4531-17.8711 39.4531-39.4043s-17.9688-39.4043-39.502-39.4043c-21.4844 0-39.3555 17.8711-39.3555 39.4043s17.9199 39.4043 39.4043 39.4043Zm0-7.42188c-17.7246 0-31.8848-14.209-31.8848-31.9824s14.1113-31.9824 31.8359-31.9824c17.7734 0 32.0312 14.209 32.0312 31.9824s-14.209 31.9824-31.9824 31.9824Zm-17.9688-31.9824c0 2.14844 1.51367 3.61328 3.75977 3.61328h10.498v10.5957c0 2.19727 1.46484 3.71094 3.61328 3.71094 2.24609 0 3.71094-1.51367 3.71094-3.71094v-10.5957h10.5957c2.19727 0 3.71094-1.46484 3.71094-3.61328 0-2.19727-1.51367-3.71094-3.71094-3.71094h-10.5957v-10.5469c0-2.24609-1.46484-3.75977-3.71094-3.75977-2.14844 0-3.61328 1.51367-3.61328 3.75977v10.5469h-10.498c-2.24609 0-3.75977 1.51367-3.75977 3.71094Z"/>
  </g>
  <g transform="matrix(0.2 0 0 0.2 281.506 1933)">
   <path d="m58.5449 14.5508c27.2461 0 49.8047-22.6074 49.8047-49.8047 0-27.2461-22.6074-49.8047-49.8535-49.8047-27.1973 0-49.7559 22.5586-49.7559 49.8047 0 27.1973 22.6074 49.8047 49.8047 49.8047Zm0-8.30078c-23.0469 0-41.4551-18.457-41.4551-41.5039s18.3594-41.5039 41.4062-41.5039 41.5527 18.457 41.5527 41.5039-18.457 41.5039-41.5039 41.5039Zm-22.6562-41.5039c0 2.39258 1.66016 4.00391 4.15039 4.00391h14.3555v14.4043c0 2.44141 1.66016 4.15039 4.05273 4.15039 2.44141 0 4.15039-1.66016 4.15039-4.15039v-14.4043h14.4043c2.44141 0 4.15039-1.61133 4.15039-4.00391 0-2.44141-1.70898-4.15039-4.15039-4.15039h-14.4043v-14.3555c0-2.49023-1.70898-4.19922-4.15039-4.19922-2.39258 0-4.05273 1.70898-4.05273 4.19922v14.3555h-14.3555c-2.49023 0-4.15039 1.70898-4.15039 4.15039Z"/>
  </g>
  <g transform="matrix(0.2 0 0 0.2 304.924 1933)">
   <path d="m74.8535 28.3203c34.8145 0 63.623-28.8086 63.623-63.5742 0-34.8145-28.8574-63.623-63.6719-63.623-34.7656 0-63.5254 28.8086-63.5254 63.623 0 34.7656 28.8086 63.5742 63.5742 63.5742Zm0-9.08203c-30.1758 0-54.4434-24.3164-54.4434-54.4922 0-30.2246 24.2188-54.4922 54.3945-54.4922 30.2246 0 54.541 24.2676 54.541 54.4922 0 30.1758-24.2676 54.4922-54.4922 54.4922Zm-28.8574-54.4922c0 2.58789 1.85547 4.39453 4.58984 4.39453h19.7266v19.7754c0 2.68555 1.85547 4.58984 4.44336 4.58984 2.68555 0 4.54102-1.85547 4.54102-4.58984v-19.7754h19.7754c2.68555 0 4.58984-1.80664 4.58984-4.39453 0-2.73438-1.85547-4.58984-4.58984-4.58984h-19.7754v-19.7266c0-2.73438-1.85547-4.63867-4.54102-4.63867-2.58789 0-4.44336 1.9043-4.44336 4.63867v19.7266h-19.7266c-2.73438 0-4.58984 1.85547-4.58984 4.58984Z"/>
  </g>
  <text style="stroke:none;fill:black;font-family:sans-serif;font-size:13;font-weight:bold;" transform="matrix(1 0 0 1 263 1953)">Design Variations</text>
  <text style="stroke:none;fill:black;font-family:sans-serif;font-size:13;" transform="matrix(1 0 0 1 263 1971)">Symbols are supported in up to nine weights and three scales.</text>
  <text style="stroke:none;fill:black;font-family:sans-serif;font-size:13;" transform="matrix(1 0 0 1 263 1989)">For optimal layout with text and other symbols, vertically align</text>
  <text style="stroke:none;fill:black;font-family:sans-serif;font-size:13;" transform="matrix(1 0 0 1 263 2007)">symbols with the adjacent text.</text>
  <line style="fill:none;stroke:#00AEEF;stroke-width:0.5;opacity:1.0;" x1="776" x2="776" y1="1919" y2="1933"/>
  <g transform="matrix(0.2 0 0 0.2 776 1933)">
   <path d="m16.5527 0.78125c2.58789 0 3.85742-0.976562 4.78516-3.71094l6.29883-17.2363h28.8086l6.29883 17.2363c0.927734 2.73438 2.19727 3.71094 4.73633 3.71094 2.58789 0 4.24805-1.5625 4.24805-4.00391 0-0.830078-0.146484-1.61133-0.537109-2.63672l-22.9004-60.9863c-1.12305-2.97852-3.125-4.49219-6.25-4.49219-3.02734 0-5.07812 1.46484-6.15234 4.44336l-22.9004 61.084c-0.390625 1.02539-0.537109 1.80664-0.537109 2.63672 0 2.44141 1.5625 3.95508 4.10156 3.95508Zm13.4766-28.3691 11.8652-32.8613h0.244141l11.8652 32.8613Z"/>
  </g>
  <line style="fill:none;stroke:#00AEEF;stroke-width:0.5;opacity:1.0;" x1="792.836" x2="792.836" y1="1919" y2="1933"/>
  <text style="stroke:none;fill:black;font-family:sans-serif;font-size:13;font-weight:bold;" transform="matrix(1 0 0 1 776 1953)">Margins</text>
  <text style="stroke:none;fill:black;font-family:sans-serif;font-size:13;" transform="matrix(1 0 0 1 776 1971)">Leading and trailing margins on the left and right side of each symbol</text>
  <text style="stroke:none;fill:black;font-family:sans-serif;font-size:13;" transform="matrix(1 0 0 1 776 1989)">can be adjusted by modifying the x-location of the margin guidelines.</text>
  <text style="stroke:none;fill:black;font-family:sans-serif;font-size:13;" transform="matrix(1 0 0 1 776 2007)">Modifications are automatically applied proportionally to all</text>
  <text style="stroke:none;fill:black;font-family:sans-serif;font-size:13;" transform="matrix(1 0 0 1 776 2025)">scales and weights.</text>
  <g transform="matrix(0.2 0 0 0.2 1289 1933)">
   <path d="m14.209 9.32617 8.49609 8.54492c4.29688 4.3457 9.22852 4.05273 13.8672-1.07422l53.4668-58.9355-4.83398-4.88281-53.0762 58.3984c-1.75781 2.00195-3.41797 2.49023-5.76172 0.146484l-5.85938-5.81055c-2.34375-2.29492-1.80664-4.00391 0.195312-5.81055l57.373-54.0039-4.88281-4.83398-57.959 54.4434c-4.93164 4.58984-5.32227 9.47266-1.02539 13.8184Zm32.0801-90.9668c-2.09961 2.05078-2.24609 4.93164-1.07422 6.88477 1.17188 1.80664 3.4668 2.97852 6.68945 2.14844 7.32422-1.70898 14.9414-2.00195 22.0703 2.68555l-2.92969 7.27539c-1.70898 4.15039-0.830078 7.08008 1.85547 9.81445l11.4746 11.5723c2.44141 2.44141 4.49219 2.53906 7.32422 2.05078l5.32227-0.976562 3.32031 3.36914-0.195312 2.7832c-0.195312 2.49023 0.439453 4.39453 2.88086 6.78711l3.80859 3.71094c2.39258 2.39258 5.46875 2.53906 7.8125 0.195312l14.5508-14.5996c2.34375-2.34375 2.24609-5.32227-0.146484-7.71484l-3.85742-3.80859c-2.39258-2.39258-4.24805-3.17383-6.64062-2.97852l-2.88086 0.244141-3.22266-3.17383 1.2207-5.61523c0.634766-2.83203-0.146484-5.0293-3.07617-7.95898l-10.9863-10.9375c-16.6992-16.6016-38.8672-16.2109-53.3203-1.75781Zm7.4707 1.85547c12.1582-8.88672 28.6133-7.37305 39.7461 3.75977l12.1582 12.0605c1.17188 1.17188 1.36719 2.09961 1.02539 3.80859l-1.61133 7.42188 7.51953 7.42188 4.93164-0.292969c1.26953-0.0488281 1.66016 0.0488281 2.63672 1.02539l2.88086 2.88086-12.207 12.207-2.88086-2.88086c-0.976562-0.976562-1.12305-1.36719-1.07422-2.68555l0.341797-4.88281-7.4707-7.42188-7.61719 1.26953c-1.61133 0.341797-2.34375 0.195312-3.56445-0.976562l-10.0098-10.0098c-1.26953-1.17188-1.41602-2.00195-0.634766-3.85742l4.39453-10.4492c-7.8125-7.27539-17.9688-10.4004-28.125-7.42188-0.78125 0.195312-1.07422-0.439453-0.439453-0.976562Z"/>
  </g>
  <text style="stroke:none;fill:black;font-family:sans-serif;font-size:13;font-weight:bold;" transform="matrix(1 0 0 1 1289 1953)">Exporting</text>
  <text style="stroke:none;fill:black;font-family:sans-serif;font-size:13;" transform="matrix(1 0 0 1 1289 1971)">Symbols should be outlined when exporting to ensure the</text>
  <text style="stroke:none;fill:black;font-family:sans-serif;font-size:13;" transform="matrix(1 0 0 1 1289 1989)">design is preserved when submitting to Xcode.</text>
  <text id="template-version" style="stroke:none;fill:black;font-family:sans-serif;font-size:13;text-anchor:end;" transform="matrix(1 0 0 1 3036 1933)">Template v.5.0</text>
  <text style="stroke:none;fill:black;font-family:sans-serif;font-size:13;text-anchor:end;" transform="matrix(1 0 0 1 3036 1951)">Requires Xcode 15 or greater</text>
  <text id="descriptive-name" style="stroke:none;fill:black;font-family:sans-serif;font-size:13;text-anchor:end;" transform="matrix(1 0 0 1 3036 1969)">Generated from endorsement.fill</text>
  <text style="stroke:none;fill:black;font-family:sans-serif;font-size:13;text-anchor:end;" transform="matrix(1 0 0 1 3036 1987)">Typeset at 100.0 points</text>
  <text style="stroke:none;fill:black;font-family:sans-serif;font-size:13;" transform="matrix(1 0 0 1 263 726)">Small</text>
  <text style="stroke:none;fill:black;font-family:sans-serif;font-size:13;" transform="matrix(1 0 0 1 263 1156)">Medium</text>
  <text style="stroke:none;fill:black;font-family:sans-serif;font-size:13;" transform="matrix(1 0 0 1 263 1586)">Large</text>
 </g>
 <g id="Guides">
  <g id="H-reference" style="fill:#27AAE1;stroke:none;" transform="matrix(1 0 0 1 339 696)">
   <path d="M0.993654 0L3.63775 0L29.3281-67.1323L30.0303-67.1323L30.0303-70.459L28.1226-70.459ZM11.6885-24.4799L46.9815-24.4799L46.2315-26.7285L12.4385-26.7285ZM55.1196 0L57.7637 0L30.6382-70.459L29.4326-70.459L29.4326-67.1323Z"/>
  </g>
  <line id="Baseline-S" style="fill:none;stroke:#27AAE1;opacity:1;stroke-width:0.5;" x1="263" x2="3036" y1="696" y2="696"/>
  <line id="Capline-S" style="fill:none;stroke:#27AAE1;opacity:1;stroke-width:0.5;" x1="263" x2="3036" y1="625.541" y2="625.541"/>
  <g id="H-reference" style="fill:#27AAE1;stroke:none;" transform="matrix(1 0 0 1 339 1126)">
   <path d="M0.993654 0L3.63775 0L29.3281-67.1323L30.0303-67.1323L30.0303-70.459L28.1226-70.459ZM11.6885-24.4799L46.9815-24.4799L46.2315-26.7285L12.4385-26.7285ZM55.1196 0L57.7637 0L30.6382-70.459L29.4326-70.459L29.4326-67.1323Z"/>
  </g>
  <line id="Baseline-M" style="fill:none;stroke:#27AAE1;opacity:1;stroke-width:0.5;" x1="263" x2="3036" y1="1126" y2="1126"/>
  <line id="Capline-M" style="fill:none;stroke:#27AAE1;opacity:1;stroke-width:0.5;" x1="263" x2="3036" y1="1055.54" y2="1055.54"/>
  <g id="H-reference" style="fill:#27AAE1;stroke:none;" transform="matrix(1 0 0 1 339 1556)">
   <path d="M0.993654 0L3.63775 0L29.3281-67.1323L30.0303-67.1323L30.0303-70.459L28.1226-70.459ZM11.6885-24.4799L46.9815-24.4799L46.2315-26.7285L12.4385-26.7285ZM55.1196 0L57.7637 0L30.6382-70.459L29.4326-70.459L29.4326-67.1323Z"/>
  </g>
  <line id="Baseline-L" style="fill:none;stroke:#27AAE1;opacity:1;stroke-width:0.5;" x1="263" x2="3036" y1="1556" y2="1556"/>
  <line id="Capline-L" style="fill:none;stroke:#27AAE1;opacity:1;stroke-width:0.5;" x1="263" x2="3036" y1="1485.54" y2="1485.54"/>
  <line id="left-margin-Ultralight-S" style="fill:none;stroke:#00AEEF;stroke-width:0.5;opacity:1.0;" x1="511.408" x2="511.408" y1="600.785" y2="720.121"/>
  <line id="right-margin-Ultralight-S" style="fill:none;stroke:#00AEEF;stroke-width:0.5;opacity:1.0;" x1="608.014" x2="608.014" y1="600.785" y2="720.121"/>
  <line id="left-margin-Regular-S" style="fill:none;stroke:#00AEEF;stroke-width:0.5;opacity:1.0;" x1="1399.11" x2="1399.11" y1="600.785" y2="720.121"/>
  <line id="right-margin-Regular-S" style="fill:none;stroke:#00AEEF;stroke-width:0.5;opacity:1.0;" x1="1500.58" x2="1500.58" y1="600.785" y2="720.121"/>
  <line id="left-margin-Black-S" style="fill:none;stroke:#00AEEF;stroke-width:0.5;opacity:1.0;" x1="2881.45" x2="2881.45" y1="600.785" y2="720.121"/>
  <line id="right-margin-Black-S" style="fill:none;stroke:#00AEEF;stroke-width:0.5;opacity:1.0;" x1="2985.35" x2="2985.35" y1="600.785" y2="720.121"/>
 </g>
 <g id="Symbols">
  <g id="Black-S" transform="matrix(1 0 0 1 2881.45 696)">
   <path class="monochrome-0 multicolor-0:systemYellowColor hierarchical-0:secondary SFSymbolsPreviewWireframe" d="M29.053-0.342L36.816-0.342C37.305-0.342 37.598-0.244 37.988 0.146L43.457 5.615C49.121 11.279 54.785 11.279 60.449 5.615L65.918 0.146C66.309-0.244 66.602-0.342 67.09-0.342L74.854-0.342C82.861-0.342 86.865-4.395 86.865-12.354L86.865-20.117C86.865-20.606 87.012-20.947 87.354-21.289L92.822-26.758C98.486-32.422 98.486-38.086 92.822-43.75L87.354-49.219C86.963-49.609 86.865-49.902 86.865-50.391L86.865-58.154C86.865-66.162 82.813-70.166 74.854-70.166L67.09-70.166C66.602-70.166 66.26-70.313 65.918-70.654L60.449-76.123C54.736-81.836 49.121-81.836 43.457-76.074L37.988-70.654C37.647-70.313 37.305-70.166 36.816-70.166L29.053-70.166C21.045-70.166 17.041-66.211 17.041-58.154L17.041-50.391C17.041-49.902 16.895-49.561 16.553-49.219L11.084-43.75C5.42-38.086 5.42-32.422 11.084-26.758L16.553-21.289C16.895-20.947 17.041-20.606 17.041-20.117L17.041-12.354C17.041-4.346 21.094-0.342 29.053-0.342Z"/>
   <path class="monochrome-1 multicolor-1:black hierarchical-1:primary SFSymbolsPreviewWireframe" d="M37.7258-13.7765C39.1781-12.6686 40.9512-12.9641 42.7733-14.3187L51.958-21.0656L61.118-14.3187C62.9647-12.9641 64.7378-12.6686 66.1907-13.7765C67.6189-14.8603 67.9144-16.6576 67.2003-18.7262L63.5558-29.4868L72.8141-36.1103C74.6366-37.4154 75.4738-39.016 74.8827-40.7397C74.2917-42.4634 72.6911-43.2763 70.4752-43.2516L59.1482-43.1527L55.7009-54.0122C55.0115-56.1545 53.7558-57.4102 51.958-57.4102C50.1607-57.4102 48.9045-56.1545 48.2151-54.0122L44.7677-43.1527L33.4166-43.2516C31.2249-43.2763 29.6243-42.4634 29.0332-40.7644C28.4175-39.016 29.2793-37.4154 31.1018-36.1103L40.3602-29.4868L36.7162-18.7262C36.0021-16.6576 36.2971-14.8603 37.7258-13.7765Z"/>
  </g>
  <g id="Regular-S" transform="matrix(1 0 0 1 1399.11 696)">
   <path class="monochrome-0 multicolor-0:systemYellowColor hierarchical-0:secondary SFSymbolsPreviewWireframe" d="M27.734-1.563L35.693-1.563C36.426-1.563 36.963-1.367 37.5-0.83L43.164 4.785C48.291 9.961 53.174 9.912 58.301 4.785L63.916-0.83C64.453-1.367 65.039-1.563 65.772-1.563L73.682-1.563C80.908-1.563 84.424-4.98 84.424-12.305L84.424-20.215C84.424-20.947 84.619-21.484 85.156-22.07L90.723-27.686C95.898-32.813 95.85-37.695 90.723-42.822L85.156-48.438C84.619-49.023 84.424-49.561 84.424-50.293L84.424-58.203C84.424-65.478 80.957-68.945 73.682-68.945L65.772-68.945C65.039-68.945 64.453-69.141 63.916-69.678L58.301-75.293C53.125-80.469 48.291-80.42 43.164-75.293L37.5-69.678C36.963-69.141 36.426-68.945 35.693-68.945L27.734-68.945C20.459-68.945 17.041-65.527 17.041-58.203L17.041-50.293C17.041-49.561 16.846-49.023 16.309-48.438L10.693-42.822C5.518-37.695 5.566-32.813 10.693-27.686L16.309-22.07C16.846-21.484 17.041-20.947 17.041-20.215L17.041-12.305C17.041-5.029 20.459-1.563 27.734-1.563Z"/>
   <path class="monochrome-1 multicolor-1:black hierarchical-1:primary SFSymbolsPreviewWireframe" d="M36.4739-15.6186C37.443-14.8851 38.6226-15.1732 40.0371-16.195L50.7016-24.0298L61.3924-16.195C62.7812-15.1732 63.9602-14.8851 64.9299-15.6186C65.8733-16.3259 66.0563-17.5317 65.4799-19.1561L61.2615-31.7074L72.0306-39.437C73.4457-40.4067 74.0483-41.4805 73.6555-42.6338C73.2885-43.7344 72.1878-44.2844 70.4588-44.2581L57.2523-44.1535L53.2436-56.7831C52.7193-58.4338 51.9069-59.2989 50.7016-59.2989C49.5226-59.2989 48.7102-58.4338 48.1601-56.7831L44.1509-44.1535L30.945-44.2581C29.2154-44.2844 28.1411-43.7344 27.7482-42.6338C27.3812-41.4805 27.9838-40.4067 29.3726-39.437L40.1423-31.7074L35.9233-19.1561C35.347-17.5317 35.5305-16.3259 36.4739-15.6186Z"/>
  </g>
  <g id="Ultralight-S" transform="matrix(1 0 0 1 511.408 696)">
   <path class="monochrome-0 multicolor-0:systemYellowColor hierarchical-0:secondary SFSymbolsPreviewWireframe" d="M24.238-4.287L34.104-4.287C35.064-4.287 35.737-4.046 36.456-3.328L43.482 3.604C46.929 7.146 49.677 7.142 53.124 3.604L60.147-3.328C60.866-4.046 61.542-4.287 62.502-4.287L72.365-4.287C77.321-4.287 79.247-6.252 79.247-11.169L79.247-21.032C79.247-22.037 79.533-22.71 80.207-23.433L87.181-30.41C90.676-33.902 90.673-36.606 87.181-40.098L80.207-47.075C79.533-47.797 79.247-48.471 79.247-49.476L79.247-59.338C79.247-64.253 77.324-66.221 72.365-66.221L62.502-66.221C61.542-66.221 60.866-66.461 60.147-67.18L53.124-74.112C49.628-77.699 46.929-77.695 43.437-74.112L36.456-67.18C35.782-66.507 35.064-66.221 34.104-66.221L24.238-66.221C19.278-66.221 17.359-64.256 17.359-59.338L17.359-49.476C17.359-48.471 17.073-47.797 16.399-47.075L9.422-40.098C5.926-36.606 5.93-33.902 9.422-30.41L16.399-23.433C17.073-22.71 17.359-22.037 17.359-21.032L17.359-11.169C17.359-6.255 19.278-4.287 24.238-4.287Z"/>
   <path class="monochrome-1 multicolor-1:black hierarchical-1:primary SFSymbolsPreviewWireframe" d="M34.1159-14.5003C34.5516-14.1859 35.0548-14.207 35.7838-14.7508L48.2896-23.8778L60.7971-14.7508C61.5502-14.207 62.0533-14.1859 62.4891-14.5003C62.8973-14.8125 63.0666-15.2917 62.7641-16.1923L57.957-30.8898L70.5228-39.9831C71.2513-40.5229 71.4263-41.0186 71.2673-41.4938C71.1101-41.9912 70.6904-42.3183 69.7566-42.316L54.2826-42.2823L49.5178-57.0118C49.2188-57.8884 48.8208-58.2126 48.2896-58.2126C47.7858-58.2126 47.3621-57.8884 47.0871-57.0118L42.3223-42.2823L26.8483-42.316C25.9146-42.3183 25.4709-41.9912 25.3376-41.4938C25.1804-41.0186 25.329-40.5229 26.0821-39.9831L38.6474-30.8898L33.8408-16.1923C33.5384-15.2917 33.7076-14.8125 34.1159-14.5003Z"/>
  </g>
 </g>
</svg>
